# File created by Blade
# Date/Time:  Tue Jan 27 18:55:59 2015
#---------------------------------------------------------
:version 1.10
:name HOM
:units
  mass 1.0
  length 1.000000
  angle deg
:documentation
     Acclaim Skeleton File
:root
   axis xyz
   order TX TY TZ RX RY RZ
   position 0.000000 0.000000 0.000000
   orientation 0 0 0
:bonedata
   begin
      id 1
      name Spine_dum
      direction 0.000000 1.000000 0.000000
      length 5.195262
      axis 0.0 0.0 0.0 xyz
   end
   begin
      id 2
      name LeftUpLeg_dum
      direction 1.000000 0.000000 0.000000
      length 3.351363
      axis 0.0 0.0 0.0 xyz
   end
   begin
      id 3
      name RightUpLeg_dum
      direction -1.000000 0.000000 0.000000
      length 3.351363
      axis 0.0 0.0 0.0 xyz
   end
   begin
      id 4
      name Spine
      direction 0.000000 1.000000 0.000000
      length 0.000000
      axis 0.0 0.0 0.0 xyz
      dof rx ry rz
   end
   begin
      id 5
      name Spine_dum1
      direction 0.000000 1.000000 0.000000
      length 15.653875
      axis 0.0 0.0 0.0 xyz
   end
   begin
      id 6
      name Spine_dum2
      direction 0.000000 1.000000 0.000000
      length 10.329768
      axis 0.0 0.0 0.0 xyz
   end
   begin
      id 7
      name Spine_dum3
      direction 0.000000 1.000000 0.000000
      length 10.329768
      axis 0.0 0.0 0.0 xyz
   end
   begin
      id 8
      name Head
      direction 0.000000 1.000000 0.000000
      length 4.527550
      axis 0.0 0.0 0.0 xyz
      dof rx ry rz
   end
   begin
      id 9
      name LeftShoulder
      direction 1.000000 0.000000 0.000000
      length 6.996006
      axis 0.0 0.0 -90.0 xyz
      dof rx ry rz
   end
   begin
      id 10
      name LeftArm
      direction 1.000000 0.000000 0.000000
      length 10.209302
      axis 0.0 0.0 -90.0 xyz
      dof rx ry rz
   end
   begin
      id 11
      name LeftForeArm
      direction 1.000000 0.000000 0.000000
      length 8.563163
      axis 0.0 0.0 -90.0 xyz
      dof ry rz rx
   end
   begin
      id 12
      name LeftHand
      direction 0.000000 0.000000 0.000000
      length 0.000000
      axis 0.0 0.0 -90.0 xyz
      dof rx ry rz
   end
   begin
      id 13
      name LeftHand_dum1
      direction 0.000000 0.000000 0.000000
      length 0.000000
      axis 0.0 0.0 -90.0 xyz
   end
   begin
      id 14
      name LeftHand_dum2
      direction 1.000000 0.000000 0.000000
      length 3.937000
      axis 0.0 0.0 -90.0 xyz
   end
   begin
      id 15
      name LeftHandThumb1
      direction 0.000000 0.000000 1.000000
      length 3.937000
      axis 0.0 0.0 -90.0 xyz
      dof rx rz ry
   end
   begin
      id 16
      name RightShoulder
      direction -1.000000 0.000000 0.000000
      length 6.996006
      axis 0.0 0.0 90.0 xyz
      dof rx ry rz
   end
   begin
      id 17
      name RightArm
      direction -1.000000 0.000000 0.000000
      length 10.209302
      axis 0.0 0.0 90.0 xyz
      dof rx ry rz
   end
   begin
      id 18
      name RightForeArm
      direction -1.000000 0.000000 0.000000
      length 8.563163
      axis 0.0 0.0 90.0 xyz
      dof ry rz rx
   end
   begin
      id 19
      name RightHand
      direction 0.000000 0.000000 0.000000
      length 0.000000
      axis 0.0 0.0 90.0 xyz
      dof rx ry rz
   end
   begin
      id 20
      name RightHand_dum1
      direction 0.000000 0.000000 0.000000
      length 0.000000
      axis 0.0 0.0 90.0 xyz
   end
   begin
      id 21
      name RightHand_dum2
      direction -1.000000 0.000000 0.000000
      length 3.937000
      axis 0.0 0.0 90.0 xyz
   end
   begin
      id 22
      name RightHandThumb1
      direction 0.000000 0.000000 1.000000
      length 3.937000
      axis 0.0 0.0 90.0 xyz
      dof rx rz ry
   end
   begin
      id 23
      name LeftUpLeg
      direction 0.000000 -1.000000 0.000000
      length 16.346831
      axis 0.0 0.0 0.0 xyz
      dof rx ry rz
   end
   begin
      id 24
      name LeftLeg
      direction 0.000000 -1.000000 0.000000
      length 13.959795
      axis 0.0 0.0 0.0 xyz
      dof rx ry rz
   end
   begin
      id 25
      name LeftFoot
      direction 0.000000 -0.258819 0.965926
      length 5.165550
      axis 15.0 0.0 0.0 xyz
      dof rx ry rz
   end
   begin
      id 26
      name LeftToeBase
      direction 0.000000 0.000000 1.000000
      length 2.952750
      axis 0.0 0.0 0.0 xyz
      dof rx ry rz
   end
   begin
      id 27
      name RightUpLeg
      direction 0.000000 -1.000000 0.000000
      length 16.346831
      axis 0.0 0.0 0.0 xyz
      dof rx ry rz
   end
   begin
      id 28
      name RightLeg
      direction 0.000000 -1.000000 0.000000
      length 13.959795
      axis 0.0 0.0 0.0 xyz
      dof rx ry rz
   end
   begin
      id 29
      name RightFoot
      direction 0.000000 -0.258819 0.965926
      length 5.165550
      axis 15.0 0.0 0.0 xyz
      dof rx ry rz
   end
   begin
      id 30
      name RightToeBase
      direction 0.000000 0.000000 1.000000
      length 2.952750
      axis 0.0 0.0 0.0 xyz
      dof rx ry rz
   end
:hierarchy
   begin
      root Spine_dum LeftUpLeg_dum RightUpLeg_dum
      Spine_dum Spine
      LeftUpLeg_dum LeftUpLeg
      RightUpLeg_dum RightUpLeg
      Spine Spine_dum1 Spine_dum2 Spine_dum3
      Spine_dum1 Head
      Spine_dum2 LeftShoulder
      Spine_dum3 RightShoulder
      LeftShoulder LeftArm
      LeftArm LeftForeArm
      LeftForeArm LeftHand
      LeftHand LeftHand_dum1 LeftHand_dum2
      LeftHand_dum1 LeftHandThumb1
      RightShoulder RightArm
      RightArm RightForeArm
      RightForeArm RightHand
      RightHand RightHand_dum1 RightHand_dum2
      RightHand_dum1 RightHandThumb1
      LeftUpLeg LeftLeg
      LeftLeg LeftFoot
      LeftFoot LeftToeBase
      RightUpLeg RightLeg
      RightLeg RightFoot
      RightFoot RightToeBase
   end

# File created by Blade
# Date/Time:  Tue Jan 27 18:55:50 2015
# Frame Rate: 120.000 fps
#------------------------------------------------------
:FULLY-SPECIFIED
:DEGREES
367
root -2.640901 31.647724 -5.328835 3.526909 36.250106 0.596176
Spine 0.004535 -12.123338 -3.644341
Head 8.299873 5.337652 -0.084913
LeftShoulder -13.918458 9.640889 13.349568
LeftArm 25.141451 -28.466191 -73.885615
LeftForeArm -8.438924 -0.000000 78.193171
LeftHand -7.117382 -0.000000 19.220403
LeftHandThumb1 -26.253704 0.000000 33.147579
RightShoulder -10.970903 -3.257501 -12.630482
RightArm 3.573800 -31.270345 89.074090
RightForeArm -23.003636 0.000000 23.682428
RightHand -14.740486 0.000000 10.389270
RightHandThumb1 -24.326973 -0.000000 -32.862282
LeftUpLeg -8.657226 -20.455102 -5.293648
LeftLeg 19.103255 -0.000000 -0.000000
LeftFoot -23.091466 17.472407 -18.089259
LeftToeBase 8.582958 -0.000000 -0.000000
RightUpLeg -43.329109 14.698407 -0.757781
RightLeg 102.456438 -0.000000 -0.000000
RightFoot -3.877976 -10.833889 11.445504
RightToeBase -0.918670 -0.000000 0.000000
368
root -2.635437 31.643938 -5.320626 3.560476 36.208488 0.637751
Spine -0.015545 -12.112850 -3.661663
Head 8.155541 5.337446 -0.071283
LeftShoulder -13.944119 9.692019 13.335184
LeftArm 24.972127 -28.526152 -73.731626
LeftForeArm -8.635287 -0.000000 78.281230
LeftHand -7.129564 -0.000000 19.233709
LeftHandThumb1 -26.253704 0.000000 33.147579
RightShoulder -10.958085 -3.193324 -12.642690
RightArm 3.630945 -31.254470 89.075720
RightForeArm -23.074934 -0.000000 24.105620
RightHand -15.030039 -0.000000 10.066450
RightHandThumb1 -24.326973 -0.000000 -32.862282
LeftUpLeg -8.662917 -20.485015 -5.333402
LeftLeg 19.141397 -0.000000 -0.000000
LeftFoot -23.142847 17.509536 -18.082345
LeftToeBase 8.653019 -0.000000 -0.000000
RightUpLeg -43.312582 14.711403 -0.765108
RightLeg 102.405935 -0.000000 -0.000000
RightFoot -3.898793 -10.854393 11.204797
RightToeBase -0.612699 -0.000000 0.000000
369
root -2.630959 31.640398 -5.311574 3.584201 36.165488 0.654662
Spine -0.050616 -12.087489 -3.654659
Head 8.039983 5.304824 -0.065584
LeftShoulder -13.961105 9.751628 13.304288
LeftArm 24.844304 -28.621217 -73.618625
LeftForeArm -8.766604 -0.000000 78.344609
LeftHand -7.111713 0.000000 19.173820
LeftHandThumb1 -26.253704 0.000000 33.147579
RightShoulder -10.965798 -3.163755 -12.635700
RightArm 3.716385 -31.216106 89.057732
RightForeArm -23.157901 0.000000 24.503960
RightHand -14.792407 -0.000000 10.439851
RightHandThumb1 -24.326973 -0.000000 -32.862282
LeftUpLeg -8.677505 -20.487224 -5.349351
LeftLeg 19.186614 -0.000000 -0.000000
LeftFoot -23.179970 17.536097 -18.051739
LeftToeBase 8.615023 -0.000000 -0.000000
RightUpLeg -43.296393 14.754053 -0.763673
RightLeg 102.341595 -0.000000 -0.000000
RightFoot -3.856245 -10.755735 11.420996
RightToeBase -1.032353 -0.000000 0.000000
370
root -2.625848 31.637372 -5.301104 3.604288 36.114182 0.673181
Spine -0.087652 -12.061980 -3.647711
Head 7.933309 5.269376 -0.078973
LeftShoulder -13.970855 9.801935 13.285584
LeftArm 24.675208 -28.717255 -73.488262
LeftForeArm -8.951990 -0.000000 78.415687
LeftHand -7.099867 -0.000000 19.127797
LeftHandThumb1 -26.253704 0.000000 33.147579
RightShoulder -10.958592 -3.146261 -12.656049
RightArm 3.759482 -31.187583 89.080285
RightForeArm -23.180898 -0.000000 24.969138
RightHand -14.490035 -0.000000 10.788404
RightHandThumb1 -24.326973 -0.000000 -32.862282
LeftUpLeg -8.675547 -20.468679 -5.370586
LeftLeg 19.212578 -0.000000 -0.000000
LeftFoot -23.200170 17.567846 -18.012598
LeftToeBase 8.518558 -0.000000 -0.000000
RightUpLeg -43.272083 14.786414 -0.751566
RightLeg 102.276903 -0.000000 -0.000000
RightFoot -3.843256 -10.683749 11.491065
RightToeBase -1.070605 -0.000000 0.000000
371
root -2.623485 31.634888 -5.291157 3.591937 36.083864 0.670775
Spine -0.089494 -12.067022 -3.634539
Head 7.826026 5.235270 -0.078450
LeftShoulder -13.998081 9.865979 13.266081
LeftArm 24.553065 -28.819470 -73.404346
LeftForeArm -8.995552 -0.000000 78.472864
LeftHand -7.144030 -0.000000 19.034737
LeftHandThumb1 -26.253704 0.000000 33.147579
RightShoulder -10.944794 -3.126468 -12.662612
RightArm 3.821436 -31.153489 89.089105
RightForeArm -23.211141 -0.000000 25.428229
RightHand -14.550131 0.000000 10.407054
RightHandThumb1 -24.326973 -0.000000 -32.862282
LeftUpLeg -8.662540 -20.451106 -5.374612
LeftLeg 19.253986 -0.000000 -0.000000
LeftFoot -23.253056 17.557819 -18.015914
LeftToeBase 8.567069 -0.000000 -0.000000
RightUpLeg -43.231196 14.766880 -0.702566
RightLeg 102.202131 -0.000000 -0.000000
RightFoot -3.806955 -10.621069 11.522925
RightToeBase -1.098272 -0.000000 0.000000
372
root -2.618238 31.633044 -5.281820 3.603858 36.044964 0.680364
Spine -0.125059 -12.053259 -3.614746
Head 7.749904 5.163593 -0.089401
LeftShoulder -14.003100 9.920854 13.250714
LeftArm 24.414214 -28.955791 -73.357330
LeftForeArm -9.177944 -0.000000 78.519939
LeftHand -7.091244 0.000000 18.979262
LeftHandThumb1 -26.253704 0.000000 33.147579
RightShoulder -10.949416 -3.102248 -12.678579
RightArm 3.861870 -31.136291 89.109269
RightForeArm -23.240707 -0.000000 25.875790
RightHand -14.597973 -0.000000 10.347696
RightHandThumb1 -24.326973 -0.000000 -32.862282
LeftUpLeg -8.661854 -20.478162 -5.387178
LeftLeg 19.283076 -0.000000 -0.000000
LeftFoot -23.290952 17.604720 -18.000641
LeftToeBase 8.608155 -0.000000 -0.000000
RightUpLeg -43.203958 14.764220 -0.672055
RightLeg 102.118704 -0.000000 -0.000000
RightFoot -3.774099 -10.554234 11.511151
RightToeBase -1.065079 -0.000000 0.000000
373
root -2.611471 31.632265 -5.271828 3.614123 35.996455 0.696399
Spine -0.158833 -12.045677 -3.605853
Head 7.678348 5.118109 -0.093594
LeftShoulder -14.029058 9.980213 13.230207
LeftArm 24.272398 -29.081715 -73.308636
LeftForeArm -9.378876 -0.000000 78.573968
LeftHand -7.032737 -0.000000 18.836025
LeftHandThumb1 -26.253704 0.000000 33.147579
RightShoulder -10.935053 -3.082801 -12.680090
RightArm 3.902784 -31.143323 89.108928
RightForeArm -23.291135 -0.000000 26.307232
RightHand -14.506585 -0.000000 10.361060
RightHandThumb1 -24.326973 -0.000000 -32.862282
LeftUpLeg -8.639733 -20.442951 -5.409033
LeftLeg 19.287651 -0.000000 -0.000000
LeftFoot -23.307980 17.594079 -18.000607
LeftToeBase 8.572475 -0.000000 -0.000000
RightUpLeg -43.168884 14.756664 -0.641748
RightLeg 102.029091 -0.000000 -0.000000
RightFoot -3.730451 -10.514981 11.460821
RightToeBase -1.150414 -0.000000 0.000000
374
root -2.604965 31.631741 -5.262605 3.626935 35.955891 0.705268
Spine -0.202473 -12.039697 -3.581840
Head 7.626163 5.063546 -0.116965
LeftShoulder -14.062358 10.063006 13.203183
LeftArm 24.212763 -29.218966 -73.339092
LeftForeArm -9.498674 -0.000000 78.574118
LeftHand -6.991663 -0.000000 18.935994
LeftHandThumb1 -26.253704 0.000000 33.147579
RightShoulder -10.937093 -3.093425 -12.697369
RightArm 3.989454 -31.173391 89.108102
RightForeArm -23.334464 -0.000000 26.706431
RightHand -14.413033 0.000000 10.265877
RightHandThumb1 -24.326973 -0.000000 -32.862282
LeftUpLeg -8.629388 -20.437914 -5.421568
LeftLeg 19.298752 -0.000000 -0.000000
LeftFoot -23.325123 17.611426 -17.999212
LeftToeBase 8.559679 -0.000000 -0.000000
RightUpLeg -43.142918 14.744978 -0.611804
RightLeg 101.931874 -0.000000 -0.000000
RightFoot -3.713251 -10.468963 11.467500
RightToeBase -1.072032 -0.000000 0.000000
